<svg width="474" height="474" viewBox="0 0 474 474" fill="none" xmlns="http://www.w3.org/2000/svg">
<path d="M91.1667 466.166H57.8334C44.5725 466.166 31.8549 460.898 22.478 451.522C13.1012 442.145 7.83337 429.427 7.83337 416.166V382.833M382.833 466.166H416.167C429.428 466.166 442.145 460.898 451.522 451.522C460.899 442.145 466.167 429.427 466.167 416.166V382.833M466.167 91.1663V57.833C466.167 44.5722 460.899 31.8545 451.522 22.4777C442.145 13.1008 429.428 7.83301 416.167 7.83301H382.833M91.1667 7.83301H57.8334C44.5725 7.83301 31.8549 13.1008 22.478 22.4777C13.1012 31.8545 7.83337 44.5722 7.83337 57.833V91.1663" stroke="#C875BD" stroke-width="15" stroke-miterlimit="10" stroke-linecap="round" stroke-linejoin="round"/>
</svg>
